<svg xmlns="http://www.w3.org/2000/svg" width="128" height="128" viewBox="0 0 128 128"><defs>
    <linearGradient id="sg" x1="0" y1="0" x2="128" y2="128" gradientUnits="userSpaceOnUse">
      <stop offset="0" stop-color="#0A84FF"/><stop offset="1" stop-color="#0257CC"/>
    </linearGradient>
    <radialGradient id="sh" cx="0.5" cy="0" r="0.9">
      <stop offset="0" stop-color="#fff" stop-opacity="0.30"/>
      <stop offset="0.55" stop-color="#fff" stop-opacity="0.05"/>
      <stop offset="1" stop-color="#fff" stop-opacity="0"/>
    </radialGradient>
  </defs>
    <path d="M128.00 64.00L127.99 78.91L127.96 83.67L127.92 87.12L127.86 89.93L127.78 92.34L127.68 94.47L127.57 96.39L127.44 98.15L127.29 99.76L127.12 101.27L126.93 102.68L126.73 104.01L126.51 105.26L126.26 106.45L126.00 107.58L125.73 108.66L125.43 109.69L125.11 110.67L124.78 111.60L124.42 112.50L124.05 113.36L123.65 114.19L123.23 114.98L122.80 115.74L122.34 116.48L121.86 117.18L121.36 117.85L120.83 118.50L120.29 119.12L119.72 119.72L119.12 120.29L118.50 120.83L117.85 121.36L117.18 121.86L116.48 122.34L115.74 122.80L114.98 123.23L114.19 123.65L113.36 124.05L112.50 124.42L111.60 124.78L110.67 125.11L109.69 125.43L108.66 125.73L107.58 126.00L106.45 126.26L105.26 126.51L104.01 126.73L102.68 126.93L101.27 127.12L99.76 127.29L98.15 127.44L96.39 127.57L94.47 127.68L92.34 127.78L89.93 127.86L87.12 127.92L83.67 127.96L78.91 127.99L64.00 128.00L49.09 127.99L44.33 127.96L40.88 127.92L38.07 127.86L35.66 127.78L33.53 127.68L31.61 127.57L29.85 127.44L28.24 127.29L26.73 127.12L25.32 126.93L23.99 126.73L22.74 126.51L21.55 126.26L20.42 126.00L19.34 125.73L18.31 125.43L17.33 125.11L16.40 124.78L15.50 124.42L14.64 124.05L13.81 123.65L13.02 123.23L12.26 122.80L11.52 122.34L10.82 121.86L10.15 121.36L9.50 120.83L8.88 120.29L8.28 119.72L7.71 119.12L7.17 118.50L6.64 117.85L6.14 117.18L5.66 116.48L5.20 115.74L4.77 114.98L4.35 114.19L3.95 113.36L3.58 112.50L3.22 111.60L2.89 110.67L2.57 109.69L2.27 108.66L2.00 107.58L1.74 106.45L1.49 105.26L1.27 104.01L1.07 102.68L0.88 101.27L0.71 99.76L0.56 98.15L0.43 96.39L0.32 94.47L0.22 92.34L0.14 89.93L0.08 87.12L0.04 83.67L0.01 78.91L0.00 64.00L0.01 49.09L0.04 44.33L0.08 40.88L0.14 38.07L0.22 35.66L0.32 33.53L0.43 31.61L0.56 29.85L0.71 28.24L0.88 26.73L1.07 25.32L1.27 23.99L1.49 22.74L1.74 21.55L2.00 20.42L2.27 19.34L2.57 18.31L2.89 17.33L3.22 16.40L3.58 15.50L3.95 14.64L4.35 13.81L4.77 13.02L5.20 12.26L5.66 11.52L6.14 10.82L6.64 10.15L7.17 9.50L7.71 8.88L8.28 8.28L8.88 7.71L9.50 7.17L10.15 6.64L10.82 6.14L11.52 5.66L12.26 5.20L13.02 4.77L13.81 4.35L14.64 3.95L15.50 3.58L16.40 3.22L17.33 2.89L18.31 2.57L19.34 2.27L20.42 2.00L21.55 1.74L22.74 1.49L23.99 1.27L25.32 1.07L26.73 0.88L28.24 0.71L29.85 0.56L31.61 0.43L33.53 0.32L35.66 0.22L38.07 0.14L40.88 0.08L44.33 0.04L49.09 0.01L64.00 0.00L78.91 0.01L83.67 0.04L87.12 0.08L89.93 0.14L92.34 0.22L94.47 0.32L96.39 0.43L98.15 0.56L99.76 0.71L101.27 0.88L102.68 1.07L104.01 1.27L105.26 1.49L106.45 1.74L107.58 2.00L108.66 2.27L109.69 2.57L110.67 2.89L111.60 3.22L112.50 3.58L113.36 3.95L114.19 4.35L114.98 4.77L115.74 5.20L116.48 5.66L117.18 6.14L117.85 6.64L118.50 7.17L119.12 7.71L119.72 8.28L120.29 8.88L120.83 9.50L121.36 10.15L121.86 10.82L122.34 11.52L122.80 12.26L123.23 13.02L123.65 13.81L124.05 14.64L124.42 15.50L124.78 16.40L125.11 17.33L125.43 18.31L125.73 19.34L126.00 20.42L126.26 21.55L126.51 22.74L126.73 23.99L126.93 25.32L127.12 26.73L127.29 28.24L127.44 29.85L127.57 31.61L127.68 33.53L127.78 35.66L127.86 38.07L127.92 40.88L127.96 44.33L127.99 49.09Z" fill="url(#sg)"/><path d="M128.00 64.00L127.99 78.91L127.96 83.67L127.92 87.12L127.86 89.93L127.78 92.34L127.68 94.47L127.57 96.39L127.44 98.15L127.29 99.76L127.12 101.27L126.93 102.68L126.73 104.01L126.51 105.26L126.26 106.45L126.00 107.58L125.73 108.66L125.43 109.69L125.11 110.67L124.78 111.60L124.42 112.50L124.05 113.36L123.65 114.19L123.23 114.98L122.80 115.74L122.34 116.48L121.86 117.18L121.36 117.85L120.83 118.50L120.29 119.12L119.72 119.72L119.12 120.29L118.50 120.83L117.85 121.36L117.18 121.86L116.48 122.34L115.74 122.80L114.98 123.23L114.19 123.65L113.36 124.05L112.50 124.42L111.60 124.78L110.67 125.11L109.69 125.43L108.66 125.73L107.58 126.00L106.45 126.26L105.26 126.51L104.01 126.73L102.68 126.93L101.27 127.12L99.76 127.29L98.15 127.44L96.39 127.57L94.47 127.68L92.34 127.78L89.93 127.86L87.12 127.92L83.67 127.96L78.91 127.99L64.00 128.00L49.09 127.99L44.33 127.96L40.88 127.92L38.07 127.86L35.66 127.78L33.53 127.68L31.61 127.57L29.85 127.44L28.24 127.29L26.73 127.12L25.32 126.93L23.99 126.73L22.74 126.51L21.55 126.26L20.42 126.00L19.34 125.73L18.31 125.43L17.33 125.11L16.40 124.78L15.50 124.42L14.64 124.05L13.81 123.65L13.02 123.23L12.26 122.80L11.52 122.34L10.82 121.86L10.15 121.36L9.50 120.83L8.88 120.29L8.28 119.72L7.71 119.12L7.17 118.50L6.64 117.85L6.14 117.18L5.66 116.48L5.20 115.74L4.77 114.98L4.35 114.19L3.95 113.36L3.58 112.50L3.22 111.60L2.89 110.67L2.57 109.69L2.27 108.66L2.00 107.58L1.74 106.45L1.49 105.26L1.27 104.01L1.07 102.68L0.88 101.27L0.71 99.76L0.56 98.15L0.43 96.39L0.32 94.47L0.22 92.34L0.14 89.93L0.08 87.12L0.04 83.67L0.01 78.91L0.00 64.00L0.01 49.09L0.04 44.33L0.08 40.88L0.14 38.07L0.22 35.66L0.32 33.53L0.43 31.61L0.56 29.85L0.71 28.24L0.88 26.73L1.07 25.32L1.27 23.99L1.49 22.74L1.74 21.55L2.00 20.42L2.27 19.34L2.57 18.31L2.89 17.33L3.22 16.40L3.58 15.50L3.95 14.64L4.35 13.81L4.77 13.02L5.20 12.26L5.66 11.52L6.14 10.82L6.64 10.15L7.17 9.50L7.71 8.88L8.28 8.28L8.88 7.71L9.50 7.17L10.15 6.64L10.82 6.14L11.52 5.66L12.26 5.20L13.02 4.77L13.81 4.35L14.64 3.95L15.50 3.58L16.40 3.22L17.33 2.89L18.31 2.57L19.34 2.27L20.42 2.00L21.55 1.74L22.74 1.49L23.99 1.27L25.32 1.07L26.73 0.88L28.24 0.71L29.85 0.56L31.61 0.43L33.53 0.32L35.66 0.22L38.07 0.14L40.88 0.08L44.33 0.04L49.09 0.01L64.00 0.00L78.91 0.01L83.67 0.04L87.12 0.08L89.93 0.14L92.34 0.22L94.47 0.32L96.39 0.43L98.15 0.56L99.76 0.71L101.27 0.88L102.68 1.07L104.01 1.27L105.26 1.49L106.45 1.74L107.58 2.00L108.66 2.27L109.69 2.57L110.67 2.89L111.60 3.22L112.50 3.58L113.36 3.95L114.19 4.35L114.98 4.77L115.74 5.20L116.48 5.66L117.18 6.14L117.85 6.64L118.50 7.17L119.12 7.71L119.72 8.28L120.29 8.88L120.83 9.50L121.36 10.15L121.86 10.82L122.34 11.52L122.80 12.26L123.23 13.02L123.65 13.81L124.05 14.64L124.42 15.50L124.78 16.40L125.11 17.33L125.43 18.31L125.73 19.34L126.00 20.42L126.26 21.55L126.51 22.74L126.73 23.99L126.93 25.32L127.12 26.73L127.29 28.24L127.44 29.85L127.57 31.61L127.68 33.53L127.78 35.66L127.86 38.07L127.92 40.88L127.96 44.33L127.99 49.09Z" fill="url(#sh)"/><text x="64" y="84.3" text-anchor="middle" font-family="SF Pro Display, -apple-system, Helvetica Neue, Arial, sans-serif"
    font-weight="800" font-size="58.9" letter-spacing="-1.8" fill="#fff">MK</text></svg>